<?xml version="1.0" encoding="utf-8"?>
<!-- Generator: Adobe Illustrator 19.1.0, SVG Export Plug-In . SVG Version: 6.00 Build 0)  -->
<svg version="1.1" id="Layer_1" xmlns="http://www.w3.org/2000/svg" xmlns:xlink="http://www.w3.org/1999/xlink" x="0px" y="0px"
	 viewBox="0 0 95 35.7" style="enable-background:new 0 0 95 35.7;" xml:space="preserve">
<style type="text/css">
	.st0{fill:#FFFFFF;}
</style>
<g>
	<path class="st0" d="M0,35.7c0.8-7.4,1.6-14.7,2.5-22.1c2.9-0.8,5.7-1.6,8.5-2.4c7-1.8,11.5,1.4,11.1,8.1
		c-0.4,6.8-5.6,12-13.2,13.9C6,34,3,34.8,0,35.7z M9.2,28.7c3.8-1,7-3.6,7.3-8c0.3-4.4-2.5-5.7-6.1-4.7c-1,0.3-2.1,0.5-3.1,0.8
		C6.8,21,6.4,25.3,6,29.5C7.1,29.2,8.1,29,9.2,28.7z"/>
	<path class="st0" d="M34.1,17.2c-0.6,0-1.1,0-1.6,0.1c-2.1,0.4-4,1.9-4.1,4.9c-0.1,2.2-0.2,4.5-0.3,6.7c-1.8,0.3-3.5,0.7-5.3,1.1
		c0.3-5.1,0.6-10.3,0.9-15.4c1.6-0.4,3.3-0.7,4.9-1c0,0.7-0.1,1.4-0.1,2.1c1-1.9,3.1-2.8,4.4-3.1c0.5-0.1,1-0.1,1.3-0.1
		C34.2,14.1,34.1,15.6,34.1,17.2z"/>
	<path class="st0" d="M52.7,17.4c0.1,4.8-3.9,8.6-9,9.4c-5.1,0.7-9-1.9-8.8-6.7c0.2-4.8,4.2-8.8,9.1-9.6
		C48.8,9.7,52.6,12.6,52.7,17.4z M47.6,18.1c0-2.6-1.8-3.6-3.7-3.3c-1.9,0.3-3.8,1.8-3.8,4.4c-0.1,2.6,1.8,3.5,3.7,3.2
		C45.7,22.1,47.5,20.7,47.6,18.1z"/>
	<path class="st0" d="M59.7,24.3c-1.7,0.2-3.5,0.3-5.2,0.5c-0.1-5.1-0.1-10.2-0.2-15.4C56,9.3,57.6,9.2,59.2,9c0,0.6,0,1.2,0,1.8
		c0.9-1.5,2.8-2.4,4.5-2.6c4.1-0.3,6,2.3,6.2,5.7c0.2,3.2,0.3,6.4,0.5,9.7c-1.7,0.1-3.4,0.2-5.2,0.4C65.2,20.9,65.1,18,65,15
		c-0.1-1.5-1-2.6-2.8-2.4c-1.7,0.2-2.7,1.4-2.7,2.9C59.6,18.5,59.7,21.4,59.7,24.3z"/>
	<path class="st0" d="M82.2,14c2.4,2.9,4.8,5.9,7.3,8.9c-2.1,0-4.1,0-6.2,0.1c-1.4-1.8-2.9-3.6-4.3-5.3c-0.5,0.6-1,1.1-1.5,1.7
		c0.1,1.3,0.2,2.5,0.3,3.8c-1.7,0.1-3.4,0.1-5.1,0.2C72.2,15.9,71.8,8.4,71.4,1c1.6-0.1,3.2-0.2,4.9-0.3c0.3,4.1,0.5,8.1,0.8,12.2
		c1.5-1.8,3.1-3.6,4.5-5.3c2.1-0.1,4.2-0.1,6.3-0.1C86,9.6,84.1,11.8,82.2,14z"/>
	<path class="st0" d="M91.8,0c1.6,0,3,1.3,3.2,2.9c0.2,1.6-1,2.9-2.6,2.8c-1.6,0-3.1-1.3-3.2-2.9C89,1.3,90.2,0,91.8,0z M92.3,5.1
		c1.3,0,2.1-1,2-2.2c-0.1-1.3-1.2-2.3-2.5-2.3c-1.2,0-2.1,1-2,2.2C90,4.1,91,5.1,92.3,5.1z M92.1,3.4c-0.1,0-0.2,0-0.2,0
		c0,0.3,0.1,0.7,0.1,1c-0.3,0-0.5,0-0.8,0c-0.1-1-0.2-2.1-0.3-3.1c0.4,0,0.9,0,1.3,0c0.6,0,1.1,0.5,1.2,1c0,0.4-0.1,0.7-0.5,0.9
		c0.2,0.4,0.5,0.8,0.7,1.2c-0.3,0-0.6,0-0.9,0C92.5,4.1,92.3,3.7,92.1,3.4z M92.1,2.7c0.3,0,0.4-0.1,0.4-0.4C92.5,2.1,92.3,2,92,2
		c-0.1,0-0.2,0-0.3,0c0,0.2,0.1,0.5,0.1,0.7C91.9,2.7,92,2.7,92.1,2.7z"/>
</g>
</svg>
